<svg width="17" height="16" viewBox="0 0 17 16" fill="none" xmlns="http://www.w3.org/2000/svg">
<path d="M10.7624 5.08914L10.9088 5.38617L11.2365 5.43384L15.4532 6.04726L15.455 6.04816L15.5551 6.06278C15.6234 6.07277 15.6876 6.10168 15.7404 6.14623C15.7932 6.19078 15.8325 6.24921 15.8539 6.31492C15.8752 6.38063 15.8778 6.45099 15.8612 6.51808C15.8447 6.58508 15.8098 6.64614 15.7605 6.69438C15.7604 6.69443 15.7604 6.69449 15.7603 6.69455L12.6359 9.73696L12.3987 9.96794L12.4547 10.2943L13.1917 14.5942C13.1917 14.5943 13.1917 14.5943 13.1917 14.5943C13.2033 14.6624 13.1957 14.7324 13.1697 14.7965C13.1436 14.8605 13.1001 14.916 13.0442 14.9566C12.9883 14.9972 12.9221 15.0214 12.8531 15.0264C12.7842 15.0314 12.7152 15.017 12.654 14.9848L12.6539 14.9847L8.7929 12.9557L8.50001 12.8018L8.20715 12.9558L4.34415 14.9868L4.62775 15.5262L4.34415 14.9868C4.28295 15.019 4.21398 15.0334 4.14503 15.0284C4.07607 15.0234 4.00988 14.9992 3.95395 14.9586C3.89801 14.918 3.85456 14.8625 3.8285 14.7985C3.80245 14.7344 3.79483 14.6644 3.8065 14.5963C3.8065 14.5963 3.8065 14.5962 3.8065 14.5962L4.5435 10.2963L4.59938 9.9702L4.36251 9.73924L1.23951 6.69424L1.23942 6.69416C1.18987 6.64586 1.15483 6.58465 1.13827 6.51746C1.12172 6.45027 1.12431 6.37978 1.14575 6.31399C1.16719 6.2482 1.20663 6.18972 1.2596 6.14519C1.31256 6.10066 1.37694 6.07185 1.44544 6.06202L1.44655 6.06186L5.76355 5.43486L6.09137 5.38725L6.23775 5.09009L8.15299 1.20197C8.1886 1.14607 8.23724 1.09952 8.29483 1.06638C8.35727 1.03045 8.42804 1.01154 8.50008 1.01154C8.57211 1.01154 8.64289 1.03045 8.70532 1.06638C8.76292 1.09952 8.81157 1.14608 8.84718 1.20199L10.7624 5.08914Z" fill="#222222" stroke="#1B79FF" stroke-width="1.25893"/>
</svg>
